<?xml version="1.0" standalone="no"?><!DOCTYPE svg PUBLIC "-//W3C//DTD SVG 1.1//EN" "http://www.w3.org/Graphics/SVG/1.1/DTD/svg11.dtd"><svg t="1636622140879" class="icon" viewBox="0 0 1024 1024" version="1.1" xmlns="http://www.w3.org/2000/svg" p-id="1715" xmlns:xlink="http://www.w3.org/1999/xlink" width="200" height="200"><defs><style type="text/css"></style></defs><path d="M128.603287 22.226357H510.015504v975.578294H128.611225z" fill="#E8655A" p-id="1716"></path><path d="M229.852279 122.594233h178.922171V580.266667h-178.922171z" fill="#E6E6E6" p-id="1717"></path><path d="M319.313364 809.102884m-62.22586 0a62.22586 62.22586 0 1 0 124.451721 0 62.22586 62.22586 0 1 0-124.451721 0Z" fill="#B3B3B3" p-id="1718"></path><path d="M510.015504 22.226357h381.404279v975.578294H510.015504z" fill="#FFBA57" p-id="1719"></path><path d="M611.256558 122.594233h178.922171V580.266667h-178.922171z" fill="#E6E6E6" p-id="1720"></path><path d="M700.717643 809.102884m-62.22586 0a62.22586 62.22586 0 1 0 124.451721 0 62.22586 62.22586 0 1 0-124.451721 0Z" fill="#B3B3B3" p-id="1721"></path><path d="M408.782388 102.352372H229.852279a20.24186 20.24186 0 0 0-20.24186 20.241861v457.680372a20.24186 20.24186 0 0 0 20.24186 20.24186h178.922171a20.24186 20.24186 0 0 0 20.24186-20.24186V122.594233a20.24186 20.24186 0 0 0-20.24186-20.241861z m-20.241861 457.680372H250.086202V142.836093h138.454325V560.024806zM319.313364 726.643101c-45.476713 0-82.475659 36.991008-82.475659 82.475659 0 45.468775 36.998946 82.459783 82.475659 82.459783 45.476713 0 82.475659-36.991008 82.475659-82.467721 0-45.468775-36.998946-82.467721-82.475659-82.467721z m0 124.459659a42.039566 42.039566 0 0 1-41.991938-41.991938 42.039566 42.039566 0 0 1 41.991938-41.984 42.039566 42.039566 0 0 1 41.991938 41.991938 42.039566 42.039566 0 0 1-41.991938 41.984z" fill="#603813" p-id="1722"></path><path d="M891.411845 1018.046512a20.24186 20.24186 0 0 0 20.24186-20.241861V22.226357A20.24186 20.24186 0 0 0 891.411845 1.984496H128.627101a20.24186 20.24186 0 0 0-20.241861 20.241861v975.578294a20.24186 20.24186 0 0 0 20.241861 20.241861h762.792682zM148.853085 42.468217H489.773643v935.094574H148.853085V42.468217z m722.324837 935.094574H530.257364V42.468217h340.920558v935.094574z" fill="#603813" p-id="1723"></path><path d="M611.24862 600.508527h178.922171a20.24186 20.24186 0 0 0 20.24186-20.233922V122.594233a20.24186 20.24186 0 0 0-20.24186-20.241861h-178.922171a20.24186 20.24186 0 0 0-20.24186 20.241861v457.680372a20.24186 20.24186 0 0 0 20.24186 20.24186z m20.241861-457.672434h138.446387V560.024806H631.490481V142.836093zM700.717643 726.643101c-45.476713 0-82.475659 36.991008-82.475659 82.475659 0 45.468775 36.998946 82.459783 82.475659 82.459783 45.468775 0 82.467721-36.991008 82.467721-82.467721 0-45.468775-36.998946-82.467721-82.475659-82.467721z m0 124.459659a42.031628 42.031628 0 0 1-41.991938-41.991938 42.031628 42.031628 0 0 1 41.991938-41.984 42.039566 42.039566 0 0 1 41.991938 41.991938 42.039566 42.039566 0 0 1-41.991938 41.984zM299.24614 223.128806h40.142387a20.24186 20.24186 0 0 0 0-40.483721h-40.142387a20.24186 20.24186 0 0 0 0 40.483721zM299.24614 305.429829h40.142387a20.24186 20.24186 0 0 0 0-40.48372h-40.142387a20.24186 20.24186 0 0 0 0 40.48372z" fill="#603813" p-id="1724"></path><path d="M730.826419 319.146667a20.24186 20.24186 0 0 0-20.241861 20.24186v178.652279a20.24186 20.24186 0 0 0 40.483721 0V339.388527a20.24186 20.24186 0 0 0-20.24186-20.24186zM730.826419 230.820713a20.24186 20.24186 0 0 0-20.241861 20.241861v22.083473a20.24186 20.24186 0 0 0 40.483721 0v-22.083473a20.24186 20.24186 0 0 0-20.24186-20.241861z" fill="#603813" p-id="1725"></path></svg>