<?xml version="1.0" standalone="no"?><!DOCTYPE svg PUBLIC "-//W3C//DTD SVG 1.1//EN" "http://www.w3.org/Graphics/SVG/1.1/DTD/svg11.dtd"><svg t="1636622084557" class="icon" viewBox="0 0 1024 1024" version="1.1" xmlns="http://www.w3.org/2000/svg" p-id="1395" xmlns:xlink="http://www.w3.org/1999/xlink" width="200" height="200"><defs><style type="text/css"></style></defs><path d="M56.335876 22.226357h907.351318v975.578294H56.335876z" fill="#E6E6E6" p-id="1396"></path><path d="M159.672558 137.525581h697.58214v184.026295H159.672558z" fill="#FFBA57" p-id="1397"></path><path d="M158.847008 421.324403h184.026294V605.350698H158.83907zM439.311876 421.324403h184.026295V605.350698H439.311876zM158.847008 700.701767h184.026294v184.018357H158.83907zM439.311876 700.701767h184.026295v184.026295H439.311876z" fill="#B3B3B3" p-id="1398"></path><path d="M720.903938 598.706605h141.907349v286.013519H720.903938z" fill="#E8655A" p-id="1399"></path><path d="M720.903938 419.117643h141.907349v82.03907H720.903938z" fill="#B3B3B3" p-id="1400"></path><path d="M963.695132 1018.046512H56.335876a20.24186 20.24186 0 0 1-20.24186-20.241861V22.226357A20.24186 20.24186 0 0 1 56.335876 1.984496h907.359256a20.24186 20.24186 0 0 1 20.24186 20.241861v975.578294a20.24186 20.24186 0 0 1-20.24186 20.241861z m-887.117396-40.483721h866.875535V42.468217H76.577736v935.094574z" fill="#603813" p-id="1401"></path><path d="M857.270574 341.785798h-697.590078a20.24186 20.24186 0 0 1-20.24186-20.24186V137.533519a20.24186 20.24186 0 0 1 20.24186-20.24186h697.590078a20.24186 20.24186 0 0 1 20.24186 20.24186v184.026295a20.24186 20.24186 0 0 1-20.24186 20.24186z m-677.356155-40.475782h657.106356V157.759504h-657.106356v143.550512zM342.873302 625.592558H158.83907a20.24186 20.24186 0 0 1-20.241861-20.24186V421.332341a20.24186 20.24186 0 0 1 20.241861-20.24186h184.026294a20.24186 20.24186 0 0 1 20.241861 20.24186v184.034233a20.24186 20.24186 0 0 1-20.241861 20.24186z m-163.792372-40.483721h143.550512V441.574202H179.08093V585.108837zM623.346109 625.592558H439.319814a20.24186 20.24186 0 0 1-20.241861-20.24186V421.332341a20.24186 20.24186 0 0 1 20.241861-20.24186h184.026295a20.24186 20.24186 0 0 1 20.24186 20.24186v184.034233a20.24186 20.24186 0 0 1-20.24186 20.24186z m-163.784435-40.483721h143.550512V441.574202H459.561674V585.108837zM342.873302 904.969922H158.83907a20.24186 20.24186 0 0 1-20.241861-20.24186V700.701767a20.24186 20.24186 0 0 1 20.241861-20.24186h184.026294a20.24186 20.24186 0 0 1 20.241861 20.24186v184.026295a20.24186 20.24186 0 0 1-20.241861 20.24186z m-163.792372-40.48372h143.550512V720.93569H179.08093v143.550512zM623.346109 904.969922H439.319814a20.24186 20.24186 0 0 1-20.241861-20.24186V700.701767a20.24186 20.24186 0 0 1 20.241861-20.24186h184.026295a20.24186 20.24186 0 0 1 20.24186 20.24186v184.026295a20.24186 20.24186 0 0 1-20.24186 20.24186z m-163.784435-40.48372h143.550512V720.93569H459.561674v143.550512zM862.811287 904.969922H720.903938a20.24186 20.24186 0 0 1-20.24186-20.24186V598.706605a20.24186 20.24186 0 0 1 20.24186-20.241861h141.907349a20.24186 20.24186 0 0 1 20.24186 20.241861v286.021457a20.24186 20.24186 0 0 1-20.24186 20.24186z m-121.665489-40.48372h101.423628V618.940527H741.145798v245.545675zM862.811287 521.390636H720.903938a20.24186 20.24186 0 0 1-20.24186-20.241861V419.109705a20.24186 20.24186 0 0 1 20.24186-20.24186h141.907349a20.24186 20.24186 0 0 1 20.24186 20.24186v82.03907a20.24186 20.24186 0 0 1-20.24186 20.241861z m-121.665489-40.483721h101.423628v-41.555349H741.145798v41.555349z" fill="#603813" p-id="1402"></path><path d="M642.190884 253.102636H260.842171a20.24186 20.24186 0 1 1 0-40.483721H642.182946a20.24186 20.24186 0 0 1 0 40.483721zM741.963411 253.102636h-24.385489a20.24186 20.24186 0 0 1 0-40.483721h24.393427a20.24186 20.24186 0 0 1 0 40.483721z" fill="#603813" p-id="1403"></path></svg>