<?xml version="1.0" standalone="no"?><!DOCTYPE svg PUBLIC "-//W3C//DTD SVG 1.1//EN" "http://www.w3.org/Graphics/SVG/1.1/DTD/svg11.dtd"><svg t="1636622494144" class="icon" viewBox="0 0 1024 1024" version="1.1" xmlns="http://www.w3.org/2000/svg" p-id="2339" xmlns:xlink="http://www.w3.org/1999/xlink" width="200" height="200"><defs><style type="text/css"></style></defs><path d="M122.173519 26.195349h775.668093v975.578294H122.173519z" fill="#FFBA57" p-id="2340"></path><path d="M795.870264 105.130667H224.168682v817.707659h430.056186L795.870264 781.177054z" fill="#E6E6E6" p-id="2341"></path><path d="M795.870264 781.177054l-141.653334 141.661272V780.32769z" fill="#E8655A" p-id="2342"></path><path d="M388.572279 26.195349h242.88645v143.709271H388.572279z" fill="#B3B3B3" p-id="2343"></path><path d="M122.181457 5.953488A20.24186 20.24186 0 0 0 101.939597 26.195349v975.578294a20.24186 20.24186 0 0 0 20.24186 20.241861h775.668093a20.24186 20.24186 0 0 0 20.241861-20.241861V26.195349a20.24186 20.24186 0 0 0-20.241861-20.241861H122.181457zM674.458791 873.972093v-73.275535l72.838945 0.436589-72.838945 72.838946z m101.17755-113.155969l-121.300341-0.722357h-0.11907a20.24186 20.24186 0 0 0-20.24186 20.241861v122.260837H244.394667V125.372527h123.935752v44.532093a20.24186 20.24186 0 0 0 20.24186 20.233923H631.466667a20.24186 20.24186 0 0 0 20.24186-20.241861v-44.532093H775.620465v635.451535zM611.216868 46.437209v103.225551H408.81414V46.421333h202.402728z m266.39876 935.094574H142.41538V46.437209h225.915039v38.451597H224.152806a20.24186 20.24186 0 0 0-20.24186 20.241861v817.707659a20.24186 20.24186 0 0 0 20.24186 20.24186h430.056186c5.374016 0 10.517829-2.143256 14.312186-5.929674l141.661272-141.661272a20.24186 20.24186 0 0 0 5.921736-14.312186V105.130667a20.24186 20.24186 0 0 0-20.24186-20.241861H651.708527V46.437209h225.907101V981.531783z" fill="#603813" p-id="2344"></path><path d="M297.491845 443.884155a20.24186 20.24186 0 0 0-20.241861 20.241861v385.103379a20.24186 20.24186 0 0 0 40.483721 0V464.118078a20.24186 20.24186 0 0 0-20.24186-20.241861zM297.491845 362.186419a20.24186 20.24186 0 0 0-20.241861 20.24186v15.256806a20.24186 20.24186 0 0 0 40.483721 0v-15.264744a20.24186 20.24186 0 0 0-20.24186-20.24186z" fill="#603813" p-id="2345"></path></svg>