<?xml version="1.0" standalone="no"?><!DOCTYPE svg PUBLIC "-//W3C//DTD SVG 1.1//EN" "http://www.w3.org/Graphics/SVG/1.1/DTD/svg11.dtd"><svg t="1635304028714" class="icon" viewBox="0 0 1117 1024" version="1.1" xmlns="http://www.w3.org/2000/svg" p-id="1101" xmlns:xlink="http://www.w3.org/1999/xlink" width="218.1640625" height="200"><defs><style type="text/css"></style></defs><path d="M229.921706 0H47.01183A47.845128 47.845128 0 0 0 0.004457 48.473444v877.31582A47.845128 47.845128 0 0 0 47.01183 974.262709h182.909876a47.65896 47.65896 0 0 0 46.774663-48.473445v-877.31582A47.65896 47.65896 0 0 0 229.921706 0zM214.562862 497.533481a25.97041 25.97041 0 0 1-18.151362 7.725964H89.597717a25.947139 25.947139 0 0 1-25.365365-26.389287 26.738352 26.738352 0 0 1 7.446713-18.616782 25.0163 25.0163 0 0 1 17.918652-7.725964h106.813783a26.156578 26.156578 0 0 1 25.598074 26.412559 27.739004 27.739004 0 0 1-7.446712 18.59351z m0-101.577813a25.760971 25.760971 0 0 1-18.151362 7.795777H89.597717a25.993681 25.993681 0 0 1-25.365365-26.412558 26.668539 26.668539 0 0 1 7.446713-18.616782 25.0163 25.0163 0 0 1 17.918652-7.725964h106.813783a26.133307 26.133307 0 0 1 25.598074 26.389288 27.576107 27.576107 0 0 1-7.446712 18.570239z m0-172.50775a25.900597 25.900597 0 0 1-18.151362 7.749235H89.597717A26.016952 26.016952 0 0 1 64.232352 204.784595a26.621997 26.621997 0 0 1 7.446713-18.616782 24.946487 24.946487 0 0 1 17.918652-7.749235h106.813783a26.156578 26.156578 0 0 1 25.598074 26.412559 27.925172 27.925172 0 0 1-7.446712 18.570239z m398.39912-174.974474A47.845128 47.845128 0 0 0 565.954609 0h-182.909876a47.65896 47.65896 0 0 0-46.774663 48.473444v877.31582a47.65896 47.65896 0 0 0 46.774663 48.473445h182.909876a45.727469 45.727469 0 0 0 35.604595-17.034355 368.170122 368.170122 0 0 1 11.402778-437.680529V48.473444z m-62.366217 449.12985a25.598074 25.598074 0 0 1-18.151362 7.725964h-106.581073a25.993681 25.993681 0 0 1-25.598075-26.389287 26.738352 26.738352 0 0 1 7.446713-18.616782 25.155926 25.155926 0 0 1 18.151362-7.725964h106.581073a26.156578 26.156578 0 0 1 25.598074 26.412559 27.739004 27.739004 0 0 1-7.446712 18.523697z m0-101.577813a25.342094 25.342094 0 0 1-18.151362 7.795777h-106.581073a26.040223 26.040223 0 0 1-25.598075-26.412559 26.668539 26.668539 0 0 1 7.446713-18.616781 25.155926 25.155926 0 0 1 18.151362-7.725964h106.581073a26.133307 26.133307 0 0 1 25.598074 26.389287 27.576107 27.576107 0 0 1-7.446712 18.500427z m0-172.50775a25.598074 25.598074 0 0 1-18.151362 7.749235h-106.581073a26.040223 26.040223 0 0 1-25.598075-26.412558 26.621997 26.621997 0 0 1 7.446713-18.616782 25.086113 25.086113 0 0 1 18.151362-7.749235h106.581073a26.156578 26.156578 0 0 1 25.598074 26.412558 27.925172 27.925172 0 0 1-7.446712 18.500427z m486.363412-223.401376h-182.909877a47.65896 47.65896 0 0 0-46.774663 48.473444v353.439594a307.805208 307.805208 0 0 1 53.057827-4.654196c6.981293 0 13.729876 0.209439 20.478459 0.69813a27.133959 27.133959 0 0 1-2.094387-39.327951 25.155926 25.155926 0 0 1 18.151361-7.725964h106.581073a26.133307 26.133307 0 0 1 25.598075 26.389287 27.576107 27.576107 0 0 1-7.446713 18.616782 25.342094 25.342094 0 0 1-18.151362 7.795777h-80.284869a316.67145 316.67145 0 0 1 160.802449 88.732234V48.543257A47.845128 47.845128 0 0 0 1036.959177 0z m-15.358845 223.401376a25.598074 25.598074 0 0 1-18.151362 7.749235h-106.581073a26.040223 26.040223 0 0 1-25.598074-26.412558 26.621997 26.621997 0 0 1 7.446713-18.616782 25.086113 25.086113 0 0 1 18.151361-7.749235h106.581073a26.156578 26.156578 0 0 1 25.598075 26.412558 27.925172 27.925172 0 0 1-7.446713 18.500427z m21.642009 337.941123a241.110589 241.110589 0 0 0-357.674912 0 284.953109 284.953109 0 0 0 0 383.13336 241.110589 241.110589 0 0 0 357.674912 0 284.953109 284.953109 0 0 0 0-383.203173z m-204.784595 304.849794a23.852751 23.852751 0 0 1-35.371885 0l-88.197001-94.782688a27.180501 27.180501 0 0 1-6.515874-11.868198l-0.698129-4.468027a18.849491 18.849491 0 0 1 0-5.119615 37.745524 37.745524 0 0 1 0.930839-5.096344 10.681378 10.681378 0 0 1 0.930839-2.466724 2.745975 2.745975 0 0 1 0.69813-1.722052 3.211395 3.211395 0 0 1 0.465419-1.372988 1.140278 1.140278 0 0 0 0.46542-0.7214 7.167461 7.167461 0 0 1 1.163548-1.652239l0.69813-1.163549c0.698129-0.698129 1.163549-1.41953 1.861678-2.14093l89.12784-94.177642a23.922564 23.922564 0 0 1 35.371885 0.209438 28.274237 28.274237 0 0 1-0.23271 37.792066l-71.209188 75.328152 70.511059 75.747029a27.925172 27.925172 0 0 1 0 37.698982z m157.777222-86.614575h-174.765035a26.831436 26.831436 0 0 1 0-53.523246h174.765035a26.808165 26.808165 0 0 1 0 53.546517z m-115.424045-381.644017a25.179197 25.179197 0 0 0 16.056974 5.747931h26.296204a296.844578 296.844578 0 0 0-42.353178-5.864286z" p-id="1102" fill="#00bf95"></path></svg>