<?xml version="1.0" standalone="no"?><!DOCTYPE svg PUBLIC "-//W3C//DTD SVG 1.1//EN" "http://www.w3.org/Graphics/SVG/1.1/DTD/svg11.dtd"><svg t="1636622196887" class="icon" viewBox="0 0 1024 1024" version="1.1" xmlns="http://www.w3.org/2000/svg" p-id="2183" xmlns:xlink="http://www.w3.org/1999/xlink" width="200" height="200"><defs><style type="text/css"></style></defs><path d="M297.333085 22.226357h628.521675v975.578294H297.333085z" fill="#E8655A" p-id="2184"></path><path d="M157.664248 22.226357h139.676775v975.578294H157.664248z" fill="#FFBA57" p-id="2185"></path><path d="M445.932155 180.946357h331.315597v209.507224H445.932155z" fill="#E6E6E6" p-id="2186"></path><path d="M925.85476 1018.046512a20.24186 20.24186 0 0 0 20.24186-20.241861V22.226357a20.24186 20.24186 0 0 0-20.24186-20.241861H157.664248a20.24186 20.24186 0 0 0-20.24186 20.241861v64.408806H94.176248a20.24186 20.24186 0 0 0 0 40.483721h43.24614v158.44217H94.176248a20.24186 20.24186 0 0 0 0 40.475783h43.24614v158.442171H94.176248a20.24186 20.24186 0 0 0 0 40.483721h43.24614v158.44217H94.176248a20.24186 20.24186 0 0 0 0 40.483721h43.24614v158.442171H94.176248a20.24186 20.24186 0 0 0 0 40.475783h43.24614v74.990139a20.24186 20.24186 0 0 0 20.24186 20.241861h768.190512v0.007938z m-747.948651-95.232h43.246139a20.24186 20.24186 0 0 0 0-40.483721h-43.246139v-158.442171h43.246139a20.24186 20.24186 0 0 0 0-40.475783h-43.246139v-158.44217h43.246139a20.24186 20.24186 0 0 0 0-40.483721h-43.246139v-158.442171h43.246139a20.24186 20.24186 0 0 0 0-40.483721h-43.246139v-158.44217h43.246139a20.24186 20.24186 0 0 0 0-40.483721h-43.246139V42.468217h99.185116v935.094574H177.906109v-54.748279z m727.70679 54.748279H317.574946V42.468217h588.037953v935.094574z" fill="#603813" p-id="2187"></path><path d="M445.940093 410.687504h331.307659a20.24186 20.24186 0 0 0 20.24186-20.241861V180.938419a20.24186 20.24186 0 0 0-20.24186-20.241861H445.940093a20.24186 20.24186 0 0 0-20.24186 20.241861v209.507224a20.24186 20.24186 0 0 0 20.24186 20.241861z m20.24186-209.507225h290.823938v169.031442H466.181953V201.180279z" fill="#603813" p-id="2188"></path><path d="M705.766202 234.773829h-14.81228a20.24186 20.24186 0 0 0 0 40.475783h14.81228a20.24186 20.24186 0 0 0 0-40.483721zM623.234977 234.773829H521.652589a20.24186 20.24186 0 0 0 0 40.475783h101.582388a20.24186 20.24186 0 0 0 0-40.483721z" fill="#603813" p-id="2189"></path></svg>