<?xml version="1.0" standalone="no"?><!DOCTYPE svg PUBLIC "-//W3C//DTD SVG 1.1//EN" "http://www.w3.org/Graphics/SVG/1.1/DTD/svg11.dtd"><svg t="1636622163598" class="icon" viewBox="0 0 1024 1024" version="1.1" xmlns="http://www.w3.org/2000/svg" p-id="1877" xmlns:xlink="http://www.w3.org/1999/xlink" width="200" height="200"><defs><style type="text/css"></style></defs><path d="M851.06307 22.226357H168.967938v975.578294h513.087504l169.007628-168.99969z" fill="#E6E6E6" p-id="1878"></path><path d="M851.06307 828.804961l-168.99969 168.99969v-170.015752z" fill="#FFBA57" p-id="1879"></path><path d="M851.06307 1.984496H168.967938A20.24186 20.24186 0 0 0 148.726078 22.226357v975.578294a20.24186 20.24186 0 0 0 20.24186 20.241861h513.087504c5.374016 0 10.517829-2.135318 14.312186-5.929675l169.007628-168.99969a20.24186 20.24186 0 0 0 5.929674-14.312186V22.226357a20.24186 20.24186 0 0 0-20.24186-20.241861zM189.209798 42.468217h641.619349v765.967876l-148.646697-0.889054a20.495876 20.495876 0 0 0-14.391566 5.889984 20.233922 20.233922 0 0 0-5.969365 14.351876v149.773892H189.209798V42.468217z m513.087504 906.470202v-100.78859l100.193241 0.603287-100.193241 100.185303z" fill="#603813" p-id="1880"></path><path d="M236.774202 451.314109a20.24186 20.24186 0 0 0-20.241861 20.24186v459.450543a20.24186 20.24186 0 0 0 40.483721 0v-459.450543a20.24186 20.24186 0 0 0-20.24186-20.24186zM236.774202 368.330419a20.24186 20.24186 0 0 0-20.241861 20.24186v18.217674a20.24186 20.24186 0 0 0 40.483721 0v-18.217674a20.24186 20.24186 0 0 0-20.24186-20.24186z" fill="#603813" p-id="1881"></path></svg>