<?xml version="1.0" standalone="no"?><!DOCTYPE svg PUBLIC "-//W3C//DTD SVG 1.1//EN" "http://www.w3.org/Graphics/SVG/1.1/DTD/svg11.dtd"><svg t="1636622130467" class="icon" viewBox="0 0 1024 1024" version="1.1" xmlns="http://www.w3.org/2000/svg" p-id="1555" xmlns:xlink="http://www.w3.org/1999/xlink" width="200" height="200"><defs><style type="text/css"></style></defs><path d="M257.405023 943.953364L80.054574 766.602915 650.12093 196.544496l177.35045 177.35045z" fill="#E8655A" p-id="1556"></path><path d="M893.182016 56.391442l74.43448 74.426542-162.315907 220.906171L672.283783 218.691473z" fill="#B3B3B3" p-id="1557"></path><path d="M949.517891 112.727318L911.28062 74.497984l52.255752-52.263689 38.237271 38.237271z" fill="#E8655A" p-id="1558"></path><path d="M203.545798 997.804651L26.195349 820.454202l53.843349-53.835411 177.350449 177.350449z" fill="#E6E6E6" p-id="1559"></path><path d="M200.497612 373.894946L377.856 196.544496l570.066357 570.066357-177.35045 177.350449z" fill="#FFBA57" p-id="1560"></path><path d="M134.786977 56.391442L60.352496 130.817984l162.315907 220.906171L355.685209 218.691473z" fill="#B3B3B3" p-id="1561"></path><path d="M26.195349 60.463628L64.416744 22.226357l52.255752 52.255752L78.443163 112.71938z" fill="#FFBA57" p-id="1562"></path><path d="M770.571907 943.977178l177.35045-177.350449 53.843348 53.843349-177.350449 177.342511z" fill="#E6E6E6" p-id="1563"></path><path d="M719.967256 510.015504l121.81631-121.81631a20.24186 20.24186 0 0 0 0-28.624372l-9.882791-9.874853 152.028279-206.903566a20.24186 20.24186 0 0 0-2.000372-26.298543l-3.786418-3.77848 37.943565-37.943566a20.24186 20.24186 0 0 0 0-28.624372L977.848558 7.914171a20.24186 20.24186 0 0 0-28.624372 0l-37.943566 37.943565-3.786418-3.786418a20.24186 20.24186 0 0 0-26.290605-2.000372L674.307969 192.099225l-9.882791-9.874853a20.24186 20.24186 0 0 0-28.576744-0.03969L513.643163 303.691411 392.168186 182.216434a20.24186 20.24186 0 0 0-28.624372 0L353.668961 192.099225 146.765395 40.078884a20.24186 20.24186 0 0 0-26.290604 2.000372l-3.786419 3.77848L78.744806 7.914171a20.24186 20.24186 0 0 0-28.63231 0L11.883163 46.151442a20.24186 20.24186 0 0 0 0 28.624372l37.943566 37.943566-3.786419 3.786418a20.24186 20.24186 0 0 0-1.992434 26.298543L196.068217 349.692031l-9.882791 9.874853a20.24186 20.24186 0 0 0 0 28.624372l121.609923 121.609922-295.912186 296.324962a20.24186 20.24186 0 0 0 0 28.63231l177.358387 177.358387c3.953116 3.945178 9.128682 5.921736 14.312186 5.921737 5.175566 0 10.35907-1.976558 14.312186-5.921737L513.984496 715.998264l296.118574 296.118573c3.953116 3.953116 9.128682 5.929674 14.312186 5.929675s10.35907-1.976558 14.312186-5.929675l177.358387-177.358387a20.24186 20.24186 0 0 0 0-28.624372L719.975194 510.015504z m219.937736-435.533395l23.63138-23.63138 9.620837 9.612899-23.639318 23.639318-8.628589-8.628589-0.98431-0.992248z m-48.739225 8.509519l5.802667 5.802667 38.237271 38.237271 0.007938 0.007938 5.794729 5.794729-138.065364 187.907969-99.68521-99.68521 187.907969-138.065364zM798.847008 373.87907L691.342884 481.391132l-149.075349-149.075349 107.805767-107.202481 148.773706 148.773706zM54.819721 60.463628l9.612899-9.612899 23.63138 23.63138-0.98431 0.98431-8.628589 8.628589-23.63138-23.63138z m32.140899 72.370605l5.794729-5.794729 0.007938-0.007938 38.237271-38.237271 5.802667-5.802667 187.900031 138.065364-99.685209 99.68521-138.057427-187.907969zM377.848062 225.152992l541.449922 541.457861-148.734015 148.734015-541.449922-541.449922 148.734015-148.734016z m-174.310202 744.027287L54.819721 820.446264l25.211039-25.211039 74.370976 74.363039 74.363039 74.370976-25.218977 25.211039z m53.843349-53.835411L108.647194 766.587039 336.411783 538.433488l148.940403 148.940403-227.970977 227.963039z m567.026109 53.835411l-25.211039-25.211039 148.734016-148.734015 25.211038 25.211039-148.734015 148.734015z" fill="#603813" p-id="1564"></path><path d="M840.719876 779.351318c3.953116 3.961054 9.128682 5.929674 14.312186 5.929674s10.35907-1.96862 14.312186-5.921736a20.24186 20.24186 0 0 0 0-28.624372L696.288248 577.670946a20.24186 20.24186 0 0 0-28.624372 28.63231l173.056 173.048062zM641.643163 523.033798a20.24186 20.24186 0 0 0-28.624372 28.624373L623.131783 561.771163c3.953116 3.953116 9.128682 5.929674 14.312186 5.929674s10.35907-1.976558 14.312186-5.929674a20.24186 20.24186 0 0 0 0-28.624372l-10.12093-10.128869z" fill="#603813" p-id="1565"></path></svg>