<?xml version="1.0" standalone="no"?><!DOCTYPE svg PUBLIC "-//W3C//DTD SVG 1.1//EN" "http://www.w3.org/Graphics/SVG/1.1/DTD/svg11.dtd"><svg t="1635313918233" class="icon" viewBox="0 0 1024 1024" version="1.1" xmlns="http://www.w3.org/2000/svg" p-id="2575" xmlns:xlink="http://www.w3.org/1999/xlink" width="200" height="200"><defs><style type="text/css"></style></defs><path d="M709.471557 0.00032l-5.663997 0.224V0.00032H86.399946a38.239976 38.239976 0 0 0-38.399976 38.015976v298.015814h63.99996V64.00028h550.911656v231.039856l1.855999 33.791978H943.99941V959.99972H525.119672v63.99996H969.599394a38.239976 38.239976 0 0 0 38.399976-38.015976V281.248144z m17.439989 264.831834V104.320255l170.335893 160.479899z" fill="#00bf95" p-id="2576"></path><path d="M444.159722 726.463866l-42.623973-24.639985a140.607912 140.607912 0 0 0-0.416-56.223964l42.431974-24.511985a12.671992 12.671992 0 0 0 4.639997-17.311989l-46.975971-81.407949a12.703992 12.703992 0 0 0-17.343989-4.639998l-43.935972 25.375985a170.239894 170.239894 0 0 0-47.615971-27.519983V465.600029a12.671992 12.671992 0 0 0-12.671992-12.703992H185.599884a12.671992 12.671992 0 0 0-12.671992 12.703992v49.983969a170.431893 170.431893 0 0 0-48.19197 27.903982l-42.719973-24.703984a12.703992 12.703992 0 0 0-17.343989 4.671997L17.695989 604.799942a12.671992 12.671992 0 0 0 4.639997 17.343989L63.99996 646.239916a143.99991 143.99991 0 0 0-0.16 57.695964l-40.863974 23.583985a12.703992 12.703992 0 0 0-4.639997 17.343989L65.279959 826.239804a12.671992 12.671992 0 0 0 17.343989 4.639997l40.959975-23.647986a170.591893 170.591893 0 0 0 50.559968 29.279982v46.495971a12.671992 12.671992 0 0 0 12.703992 12.671992h93.983941a12.671992 12.671992 0 0 0 12.703993-12.671992v-47.29597a170.495893 170.495893 0 0 0 49.599969-29.759982l41.311974 23.839985a12.671992 12.671992 0 0 0 17.343989-4.639997l47.007971-81.407949a12.671992 12.671992 0 0 0-4.671998-17.311989z m-211.551867 56.959964a107.583933 107.583933 0 1 1 107.551932-107.551932 107.711933 107.711933 0 0 1-107.551932 107.583932z" fill="#00bf95" p-id="2577"></path></svg>